<svg width="10" height="7" viewBox="0 0 10 7" fill="none" xmlns="http://www.w3.org/2000/svg">
<path d="M8.5 3.36523L8.84197 3.00047L9.23106 3.36523L8.84197 3.73L8.5 3.36523ZM0.5 3.86523C0.223858 3.86523 0 3.64138 0 3.36523C0 3.08909 0.223858 2.86523 0.5 2.86523V3.36523V3.86523ZM5.3 0.365234L5.64197 0.000465751L8.84197 3.00047L8.5 3.36523L8.15803 3.73L4.95803 0.730003L5.3 0.365234ZM8.5 3.36523L8.84197 3.73L5.64197 6.73L5.3 6.36523L4.95803 6.00047L8.15803 3.00047L8.5 3.36523ZM8.5 3.36523V3.86523H0.5V3.36523V2.86523H8.5V3.36523Z" fill="#33363F"/>
</svg>
