<svg width="24" height="25" viewBox="0 0 24 25" fill="none" xmlns="http://www.w3.org/2000/svg">
<path d="M8 8.21094L8 7.07936C8 4.87022 9.79086 3.07936 12 3.07936C14.2091 3.07936 16 4.87022 16 7.07936L16 8.21094" stroke="#33363F" stroke-width="2" stroke-linecap="round"/>
<path d="M15 14.3681V12.3154" stroke="#33363F" stroke-width="2" stroke-linecap="round"/>
<path d="M9 14.3681V12.3154" stroke="#33363F" stroke-width="2" stroke-linecap="round"/>
<path d="M4 12.2109C4 10.3253 4 9.38251 4.58579 8.79672C5.17157 8.21094 6.11438 8.21094 8 8.21094H16C17.8856 8.21094 18.8284 8.21094 19.4142 8.79672C20 9.38251 20 10.3253 20 12.2109V13.553C20 17.3243 20 19.2099 18.8284 20.3815C17.6569 21.553 15.7712 21.553 12 21.553C8.22876 21.553 6.34315 21.553 5.17157 20.3815C4 19.2099 4 17.3243 4 13.553V12.2109Z" stroke="#33363F" stroke-width="2"/>
</svg>
