<svg width="24" height="25" viewBox="0 0 24 25" fill="none" xmlns="http://www.w3.org/2000/svg">
<path d="M5 13.0949C5 11.7014 5 11.0047 5.27446 10.3922C5.54892 9.7798 6.06437 9.32636 7.09525 8.41949L8.09525 7.53979C9.95857 5.90063 10.8902 5.08105 12 5.08105C13.1098 5.08105 14.0414 5.90063 15.9047 7.53979L16.9047 8.41949C17.9356 9.32636 18.4511 9.7798 18.7255 10.3922C19 11.0047 19 11.7014 19 13.0949V17.4469C19 19.3821 19 20.3498 18.4142 20.951C17.8284 21.5522 16.8856 21.5522 15 21.5522H9C7.11438 21.5522 6.17157 21.5522 5.58579 20.951C5 20.3498 5 19.3821 5 17.4469V13.0949Z" stroke="#33363F" stroke-width="2"/>
<path d="M14.5 21.5524V16.3945C14.5 15.8422 14.0523 15.3945 13.5 15.3945H10.5C9.94772 15.3945 9.5 15.8422 9.5 16.3945V21.5524" stroke="#33363F" stroke-width="2" stroke-linecap="round" stroke-linejoin="round"/>
</svg>
